<mxfile host="app.diagrams.net" modified="2021-08-29T13:15:00.850Z" agent="5.0 (Windows NT 10.0; Win64; x64) AppleWebKit/537.36 (KHTML, like Gecko) Chrome/92.0.4515.159 Safari/537.36 Edg/92.0.902.78" etag="MlqmMRkUhKDku-B43KaD" version="15.0.3" type="github">
  <diagram id="5OIIW9FQJaOtIpGEEk6h" name="第 1 页">
    <mxGraphModel dx="1244" dy="850" grid="1" gridSize="10" guides="1" tooltips="1" connect="1" arrows="1" fold="1" page="1" pageScale="1" pageWidth="3300" pageHeight="4681" math="0" shadow="0">
      <root>
        <mxCell id="0" />
        <mxCell id="1" parent="0" />
        <mxCell id="uWjfjnfm1OJNlvK-aUuS-1" value="&lt;font style=&quot;font-size: 18px&quot;&gt;&lt;b&gt;页面结构&lt;/b&gt;&lt;/font&gt;" style="whiteSpace=wrap;html=1;shape=mxgraph.basic.document;rounded=1;shadow=0;glass=0;labelBackgroundColor=none;sketch=1;disableMultiStroke=0;disableMultiStrokeFill=0;fontFamily=Courier New;fontSize=14;fillColor=#e1d5e7;verticalAlign=middle;strokeColor=#9673a6;" vertex="1" parent="1">
          <mxGeometry x="350" y="300" width="110" height="54" as="geometry" />
        </mxCell>
        <mxCell id="uWjfjnfm1OJNlvK-aUuS-5" style="edgeStyle=orthogonalEdgeStyle;rounded=0;orthogonalLoop=1;jettySize=auto;html=1;exitX=0;exitY=0.5;exitDx=0;exitDy=0;fontSize=18;curved=1;" edge="1" parent="1" source="uWjfjnfm1OJNlvK-aUuS-3" target="uWjfjnfm1OJNlvK-aUuS-1">
          <mxGeometry relative="1" as="geometry" />
        </mxCell>
        <mxCell id="uWjfjnfm1OJNlvK-aUuS-7" value="自动渲染" style="edgeLabel;html=1;align=center;verticalAlign=middle;resizable=0;points=[];fontSize=18;fontStyle=1" vertex="1" connectable="0" parent="uWjfjnfm1OJNlvK-aUuS-5">
          <mxGeometry x="-0.7111" relative="1" as="geometry">
            <mxPoint x="-41" y="-17" as="offset" />
          </mxGeometry>
        </mxCell>
        <mxCell id="uWjfjnfm1OJNlvK-aUuS-3" value="vue&lt;br style=&quot;font-size: 18px;&quot;&gt;监听数据变化" style="rounded=1;whiteSpace=wrap;html=1;fontSize=18;fontStyle=1;shadow=0;sketch=1;fillColor=#dae8fc;strokeColor=#6c8ebf;" vertex="1" parent="1">
          <mxGeometry x="590" y="297" width="120" height="60" as="geometry" />
        </mxCell>
        <mxCell id="uWjfjnfm1OJNlvK-aUuS-6" style="edgeStyle=orthogonalEdgeStyle;rounded=0;orthogonalLoop=1;jettySize=auto;html=1;exitX=0;exitY=0.5;exitDx=0;exitDy=0;entryX=1;entryY=0.5;entryDx=0;entryDy=0;fontSize=18;shadow=0;sketch=1;curved=1;" edge="1" parent="1" source="uWjfjnfm1OJNlvK-aUuS-4" target="uWjfjnfm1OJNlvK-aUuS-3">
          <mxGeometry relative="1" as="geometry" />
        </mxCell>
        <mxCell id="uWjfjnfm1OJNlvK-aUuS-8" value="&lt;b&gt;变化&lt;/b&gt;" style="edgeLabel;html=1;align=center;verticalAlign=middle;resizable=0;points=[];fontSize=18;" vertex="1" connectable="0" parent="uWjfjnfm1OJNlvK-aUuS-6">
          <mxGeometry x="-0.2375" y="5" relative="1" as="geometry">
            <mxPoint x="-6" y="-22" as="offset" />
          </mxGeometry>
        </mxCell>
        <mxCell id="uWjfjnfm1OJNlvK-aUuS-4" value="数据" style="ellipse;whiteSpace=wrap;html=1;fontSize=18;fontStyle=1;shadow=0;sketch=1;fillColor=#d5e8d4;strokeColor=#82b366;" vertex="1" parent="1">
          <mxGeometry x="800" y="287" width="120" height="80" as="geometry" />
        </mxCell>
        <mxCell id="uWjfjnfm1OJNlvK-aUuS-20" style="edgeStyle=orthogonalEdgeStyle;curved=1;rounded=0;sketch=1;orthogonalLoop=1;jettySize=auto;html=1;exitX=0.5;exitY=1;exitDx=0;exitDy=0;exitPerimeter=0;entryX=0.25;entryY=1;entryDx=0;entryDy=0;shadow=0;fontSize=18;" edge="1" parent="1" source="uWjfjnfm1OJNlvK-aUuS-11" target="uWjfjnfm1OJNlvK-aUuS-14">
          <mxGeometry relative="1" as="geometry">
            <Array as="points">
              <mxPoint x="365" y="560" />
              <mxPoint x="590" y="560" />
            </Array>
          </mxGeometry>
        </mxCell>
        <mxCell id="uWjfjnfm1OJNlvK-aUuS-23" value="&lt;b style=&quot;font-size: 18px;&quot;&gt;变化&lt;/b&gt;" style="edgeLabel;html=1;align=center;verticalAlign=middle;resizable=0;points=[];fontSize=18;" vertex="1" connectable="0" parent="uWjfjnfm1OJNlvK-aUuS-20">
          <mxGeometry x="-0.074" y="1" relative="1" as="geometry">
            <mxPoint x="4" y="-19" as="offset" />
          </mxGeometry>
        </mxCell>
        <mxCell id="uWjfjnfm1OJNlvK-aUuS-11" value="&lt;font style=&quot;font-size: 18px;&quot;&gt;&lt;b style=&quot;font-size: 18px;&quot;&gt;页面结构&lt;/b&gt;&lt;/font&gt;" style="whiteSpace=wrap;html=1;shape=mxgraph.basic.document;rounded=1;shadow=0;glass=0;labelBackgroundColor=none;sketch=1;disableMultiStroke=0;disableMultiStrokeFill=0;fontFamily=Courier New;fontSize=18;fillColor=#e1d5e7;verticalAlign=middle;strokeColor=#9673a6;" vertex="1" parent="1">
          <mxGeometry x="310" y="463" width="110" height="54" as="geometry" />
        </mxCell>
        <mxCell id="uWjfjnfm1OJNlvK-aUuS-18" style="edgeStyle=orthogonalEdgeStyle;rounded=0;sketch=1;orthogonalLoop=1;jettySize=auto;html=1;exitX=0.25;exitY=0;exitDx=0;exitDy=0;entryX=0.5;entryY=0;entryDx=0;entryDy=0;entryPerimeter=0;shadow=0;fontSize=18;curved=1;" edge="1" parent="1" source="uWjfjnfm1OJNlvK-aUuS-14" target="uWjfjnfm1OJNlvK-aUuS-11">
          <mxGeometry relative="1" as="geometry">
            <Array as="points">
              <mxPoint x="590" y="420" />
              <mxPoint x="365" y="420" />
            </Array>
          </mxGeometry>
        </mxCell>
        <mxCell id="uWjfjnfm1OJNlvK-aUuS-22" value="&lt;span style=&quot;font-weight: 700; font-size: 18px;&quot;&gt;自动渲染&lt;/span&gt;" style="edgeLabel;html=1;align=center;verticalAlign=middle;resizable=0;points=[];fontSize=18;" vertex="1" connectable="0" parent="uWjfjnfm1OJNlvK-aUuS-18">
          <mxGeometry x="-0.2656" y="-3" relative="1" as="geometry">
            <mxPoint x="-45" y="23" as="offset" />
          </mxGeometry>
        </mxCell>
        <mxCell id="uWjfjnfm1OJNlvK-aUuS-21" style="edgeStyle=orthogonalEdgeStyle;curved=1;rounded=0;sketch=1;orthogonalLoop=1;jettySize=auto;html=1;exitX=0.75;exitY=1;exitDx=0;exitDy=0;entryX=0.5;entryY=1;entryDx=0;entryDy=0;shadow=0;fontSize=18;" edge="1" parent="1" source="uWjfjnfm1OJNlvK-aUuS-14" target="uWjfjnfm1OJNlvK-aUuS-17">
          <mxGeometry relative="1" as="geometry">
            <Array as="points">
              <mxPoint x="650" y="560" />
              <mxPoint x="830" y="560" />
            </Array>
          </mxGeometry>
        </mxCell>
        <mxCell id="uWjfjnfm1OJNlvK-aUuS-24" value="&lt;b style=&quot;font-size: 18px;&quot;&gt;自动同步&lt;/b&gt;" style="edgeLabel;html=1;align=center;verticalAlign=middle;resizable=0;points=[];fontSize=18;" vertex="1" connectable="0" parent="uWjfjnfm1OJNlvK-aUuS-21">
          <mxGeometry x="0.1953" y="-1" relative="1" as="geometry">
            <mxPoint x="-20" y="-31" as="offset" />
          </mxGeometry>
        </mxCell>
        <mxCell id="uWjfjnfm1OJNlvK-aUuS-14" value="vue&lt;br style=&quot;font-size: 18px;&quot;&gt;监听数据变化" style="rounded=1;whiteSpace=wrap;html=1;fontSize=18;fontStyle=1;shadow=0;sketch=1;fillColor=#dae8fc;strokeColor=#6c8ebf;" vertex="1" parent="1">
          <mxGeometry x="560" y="457" width="120" height="60" as="geometry" />
        </mxCell>
        <mxCell id="uWjfjnfm1OJNlvK-aUuS-15" style="edgeStyle=orthogonalEdgeStyle;rounded=0;orthogonalLoop=1;jettySize=auto;html=1;exitX=0.5;exitY=0;exitDx=0;exitDy=0;entryX=0.75;entryY=0;entryDx=0;entryDy=0;fontSize=18;shadow=0;sketch=1;curved=1;" edge="1" parent="1" source="uWjfjnfm1OJNlvK-aUuS-17" target="uWjfjnfm1OJNlvK-aUuS-14">
          <mxGeometry relative="1" as="geometry" />
        </mxCell>
        <mxCell id="uWjfjnfm1OJNlvK-aUuS-16" value="&lt;b style=&quot;font-size: 18px;&quot;&gt;变化&lt;/b&gt;" style="edgeLabel;html=1;align=center;verticalAlign=middle;resizable=0;points=[];fontSize=18;" vertex="1" connectable="0" parent="uWjfjnfm1OJNlvK-aUuS-15">
          <mxGeometry x="-0.2375" y="5" relative="1" as="geometry">
            <mxPoint x="-23" y="15" as="offset" />
          </mxGeometry>
        </mxCell>
        <mxCell id="uWjfjnfm1OJNlvK-aUuS-17" value="数据" style="ellipse;whiteSpace=wrap;html=1;fontSize=18;fontStyle=1;shadow=0;sketch=1;fillColor=#d5e8d4;strokeColor=#82b366;" vertex="1" parent="1">
          <mxGeometry x="770" y="447" width="120" height="80" as="geometry" />
        </mxCell>
      </root>
    </mxGraphModel>
  </diagram>
</mxfile>
